inDegrees=yes
name=ik_appendData_armMove
DataType=double
version=3
OpenSimVersion=4.5
endheader
time	pelvis_tilt	pelvis_list	pelvis_rotation	pelvis_tx	pelvis_ty	pelvis_tz	hip_flexion_r	hip_adduction_r	hip_rotation_r	knee_angle_r	knee_angle_r_beta	ankle_angle_r	subtalar_angle_r	mtp_angle_r	hip_flexion_l	hip_adduction_l	hip_rotation_l	knee_angle_l	knee_angle_l_beta	ankle_angle_l	subtalar_angle_l	mtp_angle_l	lumbar_extension	lumbar_bending	lumbar_rotation	arm_flex_r	arm_add_r	arm_rot_r	elbow_flex_r	pro_sup_r	wrist_flex_r	wrist_dev_r	arm_flex_l	arm_add_l	arm_rot_l	elbow_flex_l	pro_sup_l	wrist_flex_l	wrist_dev_l
0	-0.196201213073527	89.65413380230704	0.1963074299728961	0	0.9399999999999999	0	44.52190838524091	-10.08383735491938	0	59.93843514398933	1.046123041755695	-5.013226886906264	0	0	44.52190838524091	-10.08383735491938	0	59.93843514398933	1.046123041755695	-5.013226886906264	0	0	-0.001475532263190783	0.3449243925871657	-0.0001710417765694073	0	-12.10964337042097	0	76.36938724670023	44.8891441003654	0	0	-0.2373999224852507	-0.05536100115750014	-0.005549577045441702	0.4873563737764391	44.8891441003654	0	0
1	-0.2094059375197806	89.64835015009538	0.1827730226327699	0	0.9399999999999999	0	44.52200255874727	-10.08377974717741	0	59.9384446982428	1.046123208508876	-5.013215033826394	0	0	44.52200255874727	-10.08377974717741	0	59.9384446982428	1.046123208508876	-5.013215033826394	0	0	0.008828691250616782	0.3704422921589661	0.02798171830790203	0	-12.10993535043321	0	76.36911746564914	44.88920436941513	0	0	-0.07601186066210626	-0.5081908645351776	-0.5629554008933134	0.4604072215647423	44.88920436941513	0	0
2	-0.2041464736179104	89.65219997979973	0.1869737789898815	0	0.9399999999999999	0	44.52210165432585	-10.08371907628989	0	59.93845474002359	1.046123383771014	-5.013202550358037	0	0	44.52210165432585	-10.08371907628989	0	59.93845474002359	1.046123383771014	-5.013202550358037	0	0	-0.03120297566760992	0.3727810877890685	0.03836293409229549	0	-12.11024235548345	0	76.36883358406712	44.88926783851952	0	0	-0.1934633630712629	-0.4581931842111954	-1.287916347777113	1.263985974156135	44.88926783851952	0	0
3	-0.1950792808622982	89.65236778516	0.1953943653288722	0	0.9399999999999999	0	44.52238544883681	-10.08354558134219	0	59.93848347622018	1.046123885312259	-5.013166884276904	0	0	44.52238544883681	-10.08354558134219	0	59.93848347622018	1.046123885312259	-5.013166884276904	0	0	0.003692825954339977	0.3460474329196688	0.003817053117777219	0	-12.11112127996332	0	76.36802059090508	44.88944944038654	0	0	-1.09614304202607	-1.093971573968301	-0.6250676011847516	2.53097896243277	44.88944944038654	0	0
4	-0.1945711130507262	89.65390143915975	0.19565535300527	0	0.9399999999999999	0	44.52248216292701	-10.08348631243382	0	59.93849325395374	1.046124055965902	-5.013154693184982	0	0	44.52248216292701	-10.08348631243382	0	59.93849325395374	1.046124055965902	-5.013154693184982	0	0	0.02834606196020857	0.351729309168808	-0.01417963394234595	0	-12.11142049344047	0	76.36774353141141	44.88951144817585	0	0	-1.164794949002206	-1.112468002081065	-0.3922058258745104	1.775105284383078	44.88951144817585	0	0
5	-0.1955710924583887	89.65524474752418	0.1962912221366175	0	0.9399999999999999	0	44.52263677901839	-10.08339179710755	0	59.93850891263389	1.046124329261428	-5.013135263546321	0	0	44.52263677901839	-10.08339179710755	0	59.93850891263389	1.046124329261428	-5.013135263546321	0	0	-6.055143265562169e-05	0.3444999404998159	0.001202182585573907	0	-12.11189947149995	0	76.3673005990094	44.88961037953076	0	0	-1.382210321762386	-1.544777410089498	0.8691511727925927	1.693536795712085	44.88961037953076	0	0
6	-0.1969419515041101	89.65314350973333	0.1962113500868136	0	0.9399999999999999	0	44.52280621300896	-10.08328829350952	0	59.93852607058176	1.046124628724111	-5.013113993265952	0	0	44.52280621300896	-10.08328829350952	0	59.93852607058176	1.046124628724111	-5.013113993265952	0	0	-0.001404465730687993	0.3438626773349534	0.006851080946327571	0	-12.11242438264506	0	76.3668152175169	44.88971874297771	0	0	-1.574905374430077	-1.055049142980802	2.388332445313674	1.267844330092839	44.88971874297771	0	0
7	-0.2020016137660086	89.65338131258885	0.1958538952436867	0	0.9399999999999999	0	44.52295943297693	-10.08319489094344	0	59.93854160434868	1.046124899839489	-5.013094809962436	0	0	44.52295943297693	-10.08319489094344	0	59.93854160434868	1.046124899839489	-5.013094809962436	0	0	-0.002477873676826016	0.3445772036342806	0.008302144687706334	0	-12.11289950076411	0	76.36637628511846	44.88981657592811	0	0	-2.394415181103069	-1.704251330867899	3.06695950262703	2.470071631665531	44.88981657592811	0	0
8	-0.1978832702567127	89.65435569566365	0.1996540944833411	0	0.9399999999999999	0	44.5230552993839	-10.08313630901352	0	59.93855129766872	1.046125069019839	-5.013082775297489	0	0	44.5230552993839	-10.08313630901352	0	59.93855129766872	1.046125069019839	-5.013082775297489	0	0	0.02898983801495193	0.3494610512336437	-0.01551214217276555	0	-12.11319623878007	0	76.36610165427106	44.88987791740609	0	0	-2.461827335780549	-1.716766578763181	3.308618754072882	1.70539348382253	44.88987791740609	0	0
9	-0.2022318489312568	89.65636413644087	0.1984895907716356	0	0.9399999999999999	0	44.52319865945658	-10.08304894202674	0	59.93856582138658	1.046125322506535	-5.013064838124122	0	0	44.52319865945658	-10.08304894202674	0	59.93856582138658	1.046125322506535	-5.013064838124122	0	0	-0.006733996879710993	0.3444223681090444	0.008452866619400734	0	-12.11364063096049	0	76.36569096769441	44.88996944722298	0	0	-2.911084284441026	-2.092369383708895	3.873818480207511	2.539358819184459	44.88996944722298	0	0
10	-0.2048158296397951	89.65631587149755	0.1948819644950601	0	0.9399999999999999	0	44.5233462593567	-10.08295896986353	0	59.93858076278002	1.046125583283046	-5.013046368855595	0	0	44.5233462593567	-10.08295896986353	0	59.93858076278002	1.046125583283046	-5.013046368855595	0	0	-0.001008266241511268	0.3361694086686463	0.01495690370496508	0	-12.11409795577867	0	76.36526813509313	44.89006371165016	0	0	-2.636603876969132	-2.026054883739313	4.649282736980571	2.217506094755594	44.89006371165016	0	0
11	-0.2026854602406154	89.65613520425286	0.2025208134202958	0	0.9399999999999999	0	44.52353749548184	-10.08283651682009	0	59.93859991050662	1.046125917473919	-5.013020908922916	0	0	44.52353749548184	-10.08283651682009	0	59.93859991050662	1.046125917473919	-5.013020908922916	0	0	-0.002170874100526278	0.3427914914543997	0.000504373431119185	0	-12.11467885559706	0	76.36472028777953	44.89019065714178	0	0	-2.403281690643738	-1.848337244995587	6.630471318401349	1.374291016504227	44.89019065714178	0	0
12	-0.206672439515157	89.6544018083767	0.2064077707961055	0	0.9399999999999999	0	44.52533383642611	-10.08207971213347	0	59.93882921510389	1.046129919594131	-5.012878157261769	0	0	44.52533383642611	-10.08207971213347	0	59.93882921510389	1.046129919594131	-5.012878157261769	0	0	0.0004662188515567627	0.3480488370960603	0.0006597884831890322	0	-12.12127526267366	0	76.35957507210539	44.89104381785111	0	0	-3.292207625886125	-1.978680769861491	9.059032801008383	1.834115081209003	44.89104381785111	0	0
13	-0.2155663806822757	89.64989478756533	0.2142292079679886	0	0.9399999999999999	0	44.52718182939773	-10.08130070431853	0	59.93906445486945	1.046134025302572	-5.012731242656462	0	0	44.52718182939773	-10.08130070431853	0	59.93906445486945	1.046134025302572	-5.012731242656462	0	0	-0.008627067058205019	0.3452170979247636	0.00320350590514023	0	-12.12805702943811	0	76.35428190769778	44.891922033318	0	0	-4.746647239264258	-0.8660512501053013	12.04710749722655	1.241463566002396	44.891922033318	0	0
